# xmcd
#
# Track frame offsets: 
#        182
#        11907
#        21300
#        34060
#        46235
#        59647
#        76590
#        116072
#        132110
#        146302
#        162265
#        175705
#        204217
#
# Disc length: 3018 seconds
#
# Revision: 0
# Processed by: cddbd v1.5.2PL0 Copyright (c) Steve Scherf et al.
# Submitted via: ExactAudioCopy v1.1
#
DISCID=a40bc80d
DTITLE=Billie Holiday - Billie Sings The Blues
DYEAR=1982
DGENRE=Blues
TTITLE0=My Man
TTITLE1=Miss Brown To You
TTITLE2=Keeps On A' Rain
TTITLE3=Lover Man (partial)
TTITLE4=I Cover The Waterfront
TTITLE5=All Of Me
TTITLE6=Fine And Mellow
TTITLE7=You're My Thrill
TTITLE8=He's Funny That Way
TTITLE9=Billie's Blues
TTITLE10=Tenderly
TTITLE11=I Wonder Where Our Love Has Gone. Them There Eyes
TTITLE12=God Bless The Child. Now Baby Or Never
EXTD=Radio Yesteryear
EXTT0=My Man Billie Holiday
EXTT1=
EXTT2=
EXTT3=
EXTT4=
EXTT5=
EXTT6=
EXTT7=
EXTT8=
EXTT9=
EXTT10=
EXTT11=
EXTT12=
PLAYORDER=
